<?xml version="1.0" encoding="UTF-8" standalone="no" ?>
<!DOCTYPE svg PUBLIC "-//W3C//DTD SVG 1.1//EN" "http://www.w3.org/Graphics/SVG/1.1/DTD/svg11.dtd">
<svg xmlns="http://www.w3.org/2000/svg" xmlns:xlink="http://www.w3.org/1999/xlink" version="1.1" width="1080" height="1080" viewBox="0 0 1080 1080" xml:space="preserve">
<desc>Created with Fabric.js 5.2.4</desc>
<defs>
</defs>
<g transform="matrix(1 0 0 1 540 540)" id="44257bc2-6c17-45ec-abbf-eeb34cdf5b92"  >
<rect style="stroke: none; stroke-width: 1; stroke-dasharray: none; stroke-linecap: butt; stroke-dashoffset: 0; stroke-linejoin: miter; stroke-miterlimit: 4; fill: rgb(255,255,255); fill-rule: nonzero; opacity: 1; visibility: hidden;" vector-effect="non-scaling-stroke"  x="-540" y="-540" rx="0" ry="0" width="1080" height="1080" />
</g>
<g transform="matrix(1 0 0 1 540 540)" id="d94cd37b-9c5b-436b-903b-5a5d8497fdd0"  >
</g>
<g transform="matrix(2.12 0 0 2.12 541 540)" id="4d66bc6c-88c2-4163-8ee2-6b1c38f35d92"  >
<path style="stroke: rgb(0,0,0); stroke-width: 0; stroke-dasharray: none; stroke-linecap: butt; stroke-dashoffset: 0; stroke-linejoin: miter; stroke-miterlimit: 4; fill: rgb(255,255,255); fill-rule: nonzero; opacity: 1;" vector-effect="non-scaling-stroke"  transform=" translate(-247.99, -256)" d="M 370.3 160 L 320 160 C 302.3 160 288 174.3 288 192 C 288 209.7 302.3 224 320 224 L 448 224 C 465.7 224 480 209.7 480 192 L 480 64 C 480 46.3 465.7 32 448 32 C 430.3 32 416 46.3 416 64 L 416 115.2 L 398.4 97.6 C 310.9 10.099999999999994 169.09999999999997 10.099999999999994 81.59999999999997 97.6 C -5.900000000000034 185.1 -5.900000000000034 326.9 81.59999999999997 414.4 C 169.09999999999997 501.9 310.9 501.9 398.4 414.4 C 410.9 401.9 410.9 381.59999999999997 398.4 369.09999999999997 C 385.9 356.59999999999997 365.59999999999997 356.59999999999997 353.09999999999997 369.09999999999997 C 290.59999999999997 431.59999999999997 189.29999999999995 431.59999999999997 126.79999999999995 369.09999999999997 C 64.29999999999995 306.59999999999997 64.29999999999995 205.29999999999995 126.79999999999995 142.79999999999995 C 189.29999999999995 80.29999999999995 290.59999999999997 80.29999999999995 353.09999999999997 142.79999999999995 L 370.3 160 z" stroke-linecap="round" />
</g>
</svg>