<?xml version="1.0" standalone="no"?>
<!DOCTYPE svg PUBLIC "-//W3C//DTD SVG 20010904//EN"
 "http://www.w3.org/TR/2001/REC-SVG-20010904/DTD/svg10.dtd">
<svg version="1.0" xmlns="http://www.w3.org/2000/svg"
 width="330.000000pt" height="297.000000pt" viewBox="0 0 330.000000 297.000000"
 preserveAspectRatio="xMidYMid meet">

<g transform="translate(0.000000,297.000000) scale(0.100000,-0.100000)"
fill="#000000" stroke="none">
<path d="M1424 2147 l-29 -25 -3 -161 -3 -161 -292 0 c-169 0 -308 -4 -329
-10 -20 -6 -46 -22 -58 -37 -19 -24 -20 -39 -20 -229 0 -200 0 -203 24 -231
l24 -28 324 -5 323 -5 5 -155 c5 -159 12 -190 50 -210 29 -15 83 -12 110 7 39
27 607 550 624 575 16 23 21 73 10 102 -3 8 -147 144 -321 302 -307 280 -316
287 -362 292 -40 3 -52 0 -77 -21z m393 -370 c150 -137 273 -250 273 -252 0
-5 -582 -530 -591 -533 -5 -2 -9 75 -9 182 l0 186 -350 0 -350 0 0 165 0 165
350 0 350 0 0 178 c0 98 3 182 7 185 8 9 -10 24 320 -276z"/>
</g>
</svg>
