<?xml version="1.0" standalone="no"?>
<!DOCTYPE svg PUBLIC "-//W3C//DTD SVG 20010904//EN"
 "http://www.w3.org/TR/2001/REC-SVG-20010904/DTD/svg10.dtd">
<svg version="1.0" xmlns="http://www.w3.org/2000/svg"
 width="330.000000pt" height="297.000000pt" viewBox="0 0 330.000000 297.000000"
 preserveAspectRatio="xMidYMid meet">

<g transform="translate(0.000000,297.000000) scale(0.100000,-0.100000)"
fill="#000000" stroke="none">
<path d="M1335 2158 c-11 -6 -85 -71 -165 -143 -80 -73 -212 -194 -295 -268
-161 -147 -185 -176 -185 -222 1 -55 -30 -23 460 -471 91 -83 175 -156 187
-162 27 -15 78 -15 103 -2 38 20 45 51 50 210 l5 155 322 5 323 5 27 28 28 27
0 199 c0 144 -4 205 -13 222 -28 53 -33 54 -374 57 l-317 3 -3 160 -3 161 -28
24 c-31 26 -87 32 -122 12z m55 -283 l0 -185 350 0 350 0 0 -165 0 -165 -350
0 -350 0 0 -186 c0 -115 -4 -184 -10 -182 -5 2 -140 122 -300 267 l-291 265
33 32 c81 80 553 504 560 504 4 0 8 -83 8 -185z"/>
</g>
</svg>
